<?xml version="1.0" encoding="UTF-8" standalone="no"?>
<!DOCTYPE svg PUBLIC "-//W3C//DTD SVG 1.1//EN"
 "http://www.w3.org/Graphics/SVG/1.1/DTD/svg11.dtd">
<!-- Generated by graphviz version 2.43.0 (0)
 -->
<!-- Title: Tree Pages: 1 -->
<svg width="1564pt" height="373pt"
 viewBox="0.00 0.00 1563.50 373.00" xmlns="http://www.w3.org/2000/svg" xmlns:xlink="http://www.w3.org/1999/xlink">
<g id="graph0" class="graph" transform="scale(1 1) rotate(0) translate(4 369)">
<title>Tree</title>
<polygon fill="white" stroke="transparent" points="-4,4 -4,-369 1559.5,-369 1559.5,4 -4,4"/>
<!-- 0 -->
<g id="node1" class="node">
<title>0</title>
<path fill="#f7d8c2" stroke="black" d="M866,-365C866,-365 707,-365 707,-365 701,-365 695,-359 695,-353 695,-353 695,-309 695,-309 695,-303 701,-297 707,-297 707,-297 866,-297 866,-297 872,-297 878,-303 878,-309 878,-309 878,-353 878,-353 878,-359 872,-365 866,-365"/>
<text text-anchor="middle" x="786.5" y="-349.8" font-family="Helvetica,sans-Serif" font-size="14.00">rm &lt;= 6.838</text>
<text text-anchor="middle" x="786.5" y="-334.8" font-family="Helvetica,sans-Serif" font-size="14.00">squared_error = 89.575</text>
<text text-anchor="middle" x="786.5" y="-319.8" font-family="Helvetica,sans-Serif" font-size="14.00">samples = 404</text>
<text text-anchor="middle" x="786.5" y="-304.8" font-family="Helvetica,sans-Serif" font-size="14.00">value = 22.5</text>
</g>
<!-- 1 -->
<g id="node2" class="node">
<title>1</title>
<path fill="#f9e3d4" stroke="black" d="M669,-261C669,-261 510,-261 510,-261 504,-261 498,-255 498,-249 498,-249 498,-205 498,-205 498,-199 504,-193 510,-193 510,-193 669,-193 669,-193 675,-193 681,-199 681,-205 681,-205 681,-249 681,-249 681,-255 675,-261 669,-261"/>
<text text-anchor="middle" x="589.5" y="-245.8" font-family="Helvetica,sans-Serif" font-size="14.00">lstat &lt;= 14.405</text>
<text text-anchor="middle" x="589.5" y="-230.8" font-family="Helvetica,sans-Serif" font-size="14.00">squared_error = 41.473</text>
<text text-anchor="middle" x="589.5" y="-215.8" font-family="Helvetica,sans-Serif" font-size="14.00">samples = 330</text>
<text text-anchor="middle" x="589.5" y="-200.8" font-family="Helvetica,sans-Serif" font-size="14.00">value = 19.456</text>
</g>
<!-- 0&#45;&gt;1 -->
<g id="edge1" class="edge">
<title>0&#45;&gt;1</title>
<path fill="none" stroke="black" d="M722.54,-296.88C703.35,-286.95 682.15,-275.97 662.42,-265.76"/>
<polygon fill="black" stroke="black" points="663.97,-262.61 653.48,-261.12 660.75,-268.83 663.97,-262.61"/>
<text text-anchor="middle" x="661.05" y="-281.25" font-family="Helvetica,sans-Serif" font-size="14.00">True</text>
</g>
<!-- 8 -->
<g id="node9" class="node">
<title>8</title>
<path fill="#eda673" stroke="black" d="M1067,-261C1067,-261 908,-261 908,-261 902,-261 896,-255 896,-249 896,-249 896,-205 896,-205 896,-199 902,-193 908,-193 908,-193 1067,-193 1067,-193 1073,-193 1079,-199 1079,-205 1079,-205 1079,-249 1079,-249 1079,-255 1073,-261 1067,-261"/>
<text text-anchor="middle" x="987.5" y="-245.8" font-family="Helvetica,sans-Serif" font-size="14.00">rm &lt;= 7.437</text>
<text text-anchor="middle" x="987.5" y="-230.8" font-family="Helvetica,sans-Serif" font-size="14.00">squared_error = 78.546</text>
<text text-anchor="middle" x="987.5" y="-215.8" font-family="Helvetica,sans-Serif" font-size="14.00">samples = 74</text>
<text text-anchor="middle" x="987.5" y="-200.8" font-family="Helvetica,sans-Serif" font-size="14.00">value = 36.073</text>
</g>
<!-- 0&#45;&gt;8 -->
<g id="edge8" class="edge">
<title>0&#45;&gt;8</title>
<path fill="none" stroke="black" d="M851.76,-296.88C871.34,-286.95 892.97,-275.97 913.1,-265.76"/>
<polygon fill="black" stroke="black" points="914.89,-268.77 922.22,-261.12 911.72,-262.53 914.89,-268.77"/>
<text text-anchor="middle" x="914.46" y="-281.19" font-family="Helvetica,sans-Serif" font-size="14.00">False</text>
</g>
<!-- 2 -->
<g id="node3" class="node">
<title>2</title>
<path fill="#f7d6be" stroke="black" d="M372,-157C372,-157 213,-157 213,-157 207,-157 201,-151 201,-145 201,-145 201,-101 201,-101 201,-95 207,-89 213,-89 213,-89 372,-89 372,-89 378,-89 384,-95 384,-101 384,-101 384,-145 384,-145 384,-151 378,-157 372,-157"/>
<text text-anchor="middle" x="292.5" y="-141.8" font-family="Helvetica,sans-Serif" font-size="14.00">lstat &lt;= 4.43</text>
<text text-anchor="middle" x="292.5" y="-126.8" font-family="Helvetica,sans-Serif" font-size="14.00">squared_error = 27.682</text>
<text text-anchor="middle" x="292.5" y="-111.8" font-family="Helvetica,sans-Serif" font-size="14.00">samples = 189</text>
<text text-anchor="middle" x="292.5" y="-96.8" font-family="Helvetica,sans-Serif" font-size="14.00">value = 23.088</text>
</g>
<!-- 1&#45;&gt;2 -->
<g id="edge2" class="edge">
<title>1&#45;&gt;2</title>
<path fill="none" stroke="black" d="M497.97,-194.56C465.08,-183.27 427.8,-170.47 394.11,-158.9"/>
<polygon fill="black" stroke="black" points="394.84,-155.45 384.24,-155.51 392.56,-162.07 394.84,-155.45"/>
</g>
<!-- 5 -->
<g id="node6" class="node">
<title>5</title>
<path fill="#fdf5f0" stroke="black" d="M669,-157C669,-157 510,-157 510,-157 504,-157 498,-151 498,-145 498,-145 498,-101 498,-101 498,-95 504,-89 510,-89 510,-89 669,-89 669,-89 675,-89 681,-95 681,-101 681,-101 681,-145 681,-145 681,-151 675,-157 669,-157"/>
<text text-anchor="middle" x="589.5" y="-141.8" font-family="Helvetica,sans-Serif" font-size="14.00">lstat &lt;= 19.055</text>
<text text-anchor="middle" x="589.5" y="-126.8" font-family="Helvetica,sans-Serif" font-size="14.00">squared_error = 18.588</text>
<text text-anchor="middle" x="589.5" y="-111.8" font-family="Helvetica,sans-Serif" font-size="14.00">samples = 141</text>
<text text-anchor="middle" x="589.5" y="-96.8" font-family="Helvetica,sans-Serif" font-size="14.00">value = 14.589</text>
</g>
<!-- 1&#45;&gt;5 -->
<g id="edge5" class="edge">
<title>1&#45;&gt;5</title>
<path fill="none" stroke="black" d="M589.5,-192.88C589.5,-184.78 589.5,-175.98 589.5,-167.47"/>
<polygon fill="black" stroke="black" points="593,-167.3 589.5,-157.3 586,-167.3 593,-167.3"/>
</g>
<!-- 3 -->
<g id="node4" class="node">
<title>3</title>
<path fill="#eca470" stroke="black" d="M171,-53C171,-53 12,-53 12,-53 6,-53 0,-47 0,-41 0,-41 0,-12 0,-12 0,-6 6,0 12,0 12,0 171,0 171,0 177,0 183,-6 183,-12 183,-12 183,-41 183,-41 183,-47 177,-53 171,-53"/>
<text text-anchor="middle" x="91.5" y="-37.8" font-family="Helvetica,sans-Serif" font-size="14.00">squared_error = 95.941</text>
<text text-anchor="middle" x="91.5" y="-22.8" font-family="Helvetica,sans-Serif" font-size="14.00">samples = 6</text>
<text text-anchor="middle" x="91.5" y="-7.8" font-family="Helvetica,sans-Serif" font-size="14.00">value = 36.583</text>
</g>
<!-- 2&#45;&gt;3 -->
<g id="edge3" class="edge">
<title>2&#45;&gt;3</title>
<path fill="none" stroke="black" d="M222.2,-88.95C200.41,-78.7 176.52,-67.47 155.2,-57.45"/>
<polygon fill="black" stroke="black" points="156.46,-54.17 145.92,-53.09 153.48,-60.51 156.46,-54.17"/>
</g>
<!-- 4 -->
<g id="node5" class="node">
<title>4</title>
<path fill="#f7d8c1" stroke="black" d="M372,-53C372,-53 213,-53 213,-53 207,-53 201,-47 201,-41 201,-41 201,-12 201,-12 201,-6 207,0 213,0 213,0 372,0 372,0 378,0 384,-6 384,-12 384,-12 384,-41 384,-41 384,-47 378,-53 372,-53"/>
<text text-anchor="middle" x="292.5" y="-37.8" font-family="Helvetica,sans-Serif" font-size="14.00">squared_error = 19.277</text>
<text text-anchor="middle" x="292.5" y="-22.8" font-family="Helvetica,sans-Serif" font-size="14.00">samples = 183</text>
<text text-anchor="middle" x="292.5" y="-7.8" font-family="Helvetica,sans-Serif" font-size="14.00">value = 22.645</text>
</g>
<!-- 2&#45;&gt;4 -->
<g id="edge4" class="edge">
<title>2&#45;&gt;4</title>
<path fill="none" stroke="black" d="M292.5,-88.95C292.5,-80.72 292.5,-71.85 292.5,-63.48"/>
<polygon fill="black" stroke="black" points="296,-63.24 292.5,-53.24 289,-63.24 296,-63.24"/>
</g>
<!-- 6 -->
<g id="node7" class="node">
<title>6</title>
<path fill="#fbece1" stroke="black" d="M564.5,-53C564.5,-53 414.5,-53 414.5,-53 408.5,-53 402.5,-47 402.5,-41 402.5,-41 402.5,-12 402.5,-12 402.5,-6 408.5,0 414.5,0 414.5,0 564.5,0 564.5,0 570.5,0 576.5,-6 576.5,-12 576.5,-12 576.5,-41 576.5,-41 576.5,-47 570.5,-53 564.5,-53"/>
<text text-anchor="middle" x="489.5" y="-37.8" font-family="Helvetica,sans-Serif" font-size="14.00">squared_error = 9.501</text>
<text text-anchor="middle" x="489.5" y="-22.8" font-family="Helvetica,sans-Serif" font-size="14.00">samples = 71</text>
<text text-anchor="middle" x="489.5" y="-7.8" font-family="Helvetica,sans-Serif" font-size="14.00">value = 17.13</text>
</g>
<!-- 5&#45;&gt;6 -->
<g id="edge6" class="edge">
<title>5&#45;&gt;6</title>
<path fill="none" stroke="black" d="M554.52,-88.95C544.65,-79.62 533.91,-69.47 524.07,-60.16"/>
<polygon fill="black" stroke="black" points="526.41,-57.56 516.73,-53.24 521.6,-62.65 526.41,-57.56"/>
</g>
<!-- 7 -->
<g id="node8" class="node">
<title>7</title>
<path fill="#ffffff" stroke="black" d="M766,-53C766,-53 607,-53 607,-53 601,-53 595,-47 595,-41 595,-41 595,-12 595,-12 595,-6 601,0 607,0 607,0 766,0 766,0 772,0 778,-6 778,-12 778,-12 778,-41 778,-41 778,-47 772,-53 766,-53"/>
<text text-anchor="middle" x="686.5" y="-37.8" font-family="Helvetica,sans-Serif" font-size="14.00">squared_error = 14.614</text>
<text text-anchor="middle" x="686.5" y="-22.8" font-family="Helvetica,sans-Serif" font-size="14.00">samples = 70</text>
<text text-anchor="middle" x="686.5" y="-7.8" font-family="Helvetica,sans-Serif" font-size="14.00">value = 12.011</text>
</g>
<!-- 5&#45;&gt;7 -->
<g id="edge7" class="edge">
<title>5&#45;&gt;7</title>
<path fill="none" stroke="black" d="M623.43,-88.95C632.91,-79.71 643.21,-69.67 652.69,-60.44"/>
<polygon fill="black" stroke="black" points="655.36,-62.72 660.08,-53.24 650.48,-57.71 655.36,-62.72"/>
</g>
<!-- 9 -->
<g id="node10" class="node">
<title>9</title>
<path fill="#f0b88f" stroke="black" d="M1067,-157C1067,-157 908,-157 908,-157 902,-157 896,-151 896,-145 896,-145 896,-101 896,-101 896,-95 902,-89 908,-89 908,-89 1067,-89 1067,-89 1073,-89 1079,-95 1079,-101 1079,-101 1079,-145 1079,-145 1079,-151 1073,-157 1067,-157"/>
<text text-anchor="middle" x="987.5" y="-141.8" font-family="Helvetica,sans-Serif" font-size="14.00">lstat &lt;= 12.55</text>
<text text-anchor="middle" x="987.5" y="-126.8" font-family="Helvetica,sans-Serif" font-size="14.00">squared_error = 33.732</text>
<text text-anchor="middle" x="987.5" y="-111.8" font-family="Helvetica,sans-Serif" font-size="14.00">samples = 48</text>
<text text-anchor="middle" x="987.5" y="-96.8" font-family="Helvetica,sans-Serif" font-size="14.00">value = 31.202</text>
</g>
<!-- 8&#45;&gt;9 -->
<g id="edge9" class="edge">
<title>8&#45;&gt;9</title>
<path fill="none" stroke="black" d="M987.5,-192.88C987.5,-184.78 987.5,-175.98 987.5,-167.47"/>
<polygon fill="black" stroke="black" points="991,-167.3 987.5,-157.3 984,-167.3 991,-167.3"/>
</g>
<!-- 12 -->
<g id="node13" class="node">
<title>12</title>
<path fill="#e6843e" stroke="black" d="M1369,-157C1369,-157 1210,-157 1210,-157 1204,-157 1198,-151 1198,-145 1198,-145 1198,-101 1198,-101 1198,-95 1204,-89 1210,-89 1210,-89 1369,-89 1369,-89 1375,-89 1381,-95 1381,-101 1381,-101 1381,-145 1381,-145 1381,-151 1375,-157 1369,-157"/>
<text text-anchor="middle" x="1289.5" y="-141.8" font-family="Helvetica,sans-Serif" font-size="14.00">rm &lt;= 8.753</text>
<text text-anchor="middle" x="1289.5" y="-126.8" font-family="Helvetica,sans-Serif" font-size="14.00">squared_error = 36.615</text>
<text text-anchor="middle" x="1289.5" y="-111.8" font-family="Helvetica,sans-Serif" font-size="14.00">samples = 26</text>
<text text-anchor="middle" x="1289.5" y="-96.8" font-family="Helvetica,sans-Serif" font-size="14.00">value = 45.065</text>
</g>
<!-- 8&#45;&gt;12 -->
<g id="edge12" class="edge">
<title>8&#45;&gt;12</title>
<path fill="none" stroke="black" d="M1079.34,-194.98C1113.68,-183.38 1152.87,-170.15 1188.03,-158.27"/>
<polygon fill="black" stroke="black" points="1189.48,-161.48 1197.84,-154.96 1187.24,-154.84 1189.48,-161.48"/>
</g>
<!-- 10 -->
<g id="node11" class="node">
<title>10</title>
<path fill="#efb388" stroke="black" d="M967,-53C967,-53 808,-53 808,-53 802,-53 796,-47 796,-41 796,-41 796,-12 796,-12 796,-6 802,0 808,0 808,0 967,0 967,0 973,0 979,-6 979,-12 979,-12 979,-41 979,-41 979,-47 973,-53 967,-53"/>
<text text-anchor="middle" x="887.5" y="-37.8" font-family="Helvetica,sans-Serif" font-size="14.00">squared_error = 15.092</text>
<text text-anchor="middle" x="887.5" y="-22.8" font-family="Helvetica,sans-Serif" font-size="14.00">samples = 44</text>
<text text-anchor="middle" x="887.5" y="-7.8" font-family="Helvetica,sans-Serif" font-size="14.00">value = 32.432</text>
</g>
<!-- 9&#45;&gt;10 -->
<g id="edge10" class="edge">
<title>9&#45;&gt;10</title>
<path fill="none" stroke="black" d="M952.52,-88.95C942.65,-79.62 931.91,-69.47 922.07,-60.16"/>
<polygon fill="black" stroke="black" points="924.41,-57.56 914.73,-53.24 919.6,-62.65 924.41,-57.56"/>
</g>
<!-- 11 -->
<g id="node12" class="node">
<title>11</title>
<path fill="#fbeade" stroke="black" d="M1168,-53C1168,-53 1009,-53 1009,-53 1003,-53 997,-47 997,-41 997,-41 997,-12 997,-12 997,-6 1003,0 1009,0 1009,0 1168,0 1168,0 1174,0 1180,-6 1180,-12 1180,-12 1180,-41 1180,-41 1180,-47 1174,-53 1168,-53"/>
<text text-anchor="middle" x="1088.5" y="-37.8" font-family="Helvetica,sans-Serif" font-size="14.00">squared_error = 39.157</text>
<text text-anchor="middle" x="1088.5" y="-22.8" font-family="Helvetica,sans-Serif" font-size="14.00">samples = 4</text>
<text text-anchor="middle" x="1088.5" y="-7.8" font-family="Helvetica,sans-Serif" font-size="14.00">value = 17.675</text>
</g>
<!-- 9&#45;&gt;11 -->
<g id="edge11" class="edge">
<title>9&#45;&gt;11</title>
<path fill="none" stroke="black" d="M1022.82,-88.95C1032.8,-79.62 1043.64,-69.47 1053.59,-60.16"/>
<polygon fill="black" stroke="black" points="1056.08,-62.62 1060.99,-53.24 1051.3,-57.51 1056.08,-62.62"/>
</g>
<!-- 13 -->
<g id="node14" class="node">
<title>13</title>
<path fill="#e58139" stroke="black" d="M1369,-53C1369,-53 1210,-53 1210,-53 1204,-53 1198,-47 1198,-41 1198,-41 1198,-12 1198,-12 1198,-6 1204,0 1210,0 1210,0 1369,0 1369,0 1375,0 1381,-6 1381,-12 1381,-12 1381,-41 1381,-41 1381,-47 1375,-53 1369,-53"/>
<text text-anchor="middle" x="1289.5" y="-37.8" font-family="Helvetica,sans-Serif" font-size="14.00">squared_error = 15.755</text>
<text text-anchor="middle" x="1289.5" y="-22.8" font-family="Helvetica,sans-Serif" font-size="14.00">samples = 25</text>
<text text-anchor="middle" x="1289.5" y="-7.8" font-family="Helvetica,sans-Serif" font-size="14.00">value = 45.992</text>
</g>
<!-- 12&#45;&gt;13 -->
<g id="edge13" class="edge">
<title>12&#45;&gt;13</title>
<path fill="none" stroke="black" d="M1289.5,-88.95C1289.5,-80.72 1289.5,-71.85 1289.5,-63.48"/>
<polygon fill="black" stroke="black" points="1293,-63.24 1289.5,-53.24 1286,-63.24 1293,-63.24"/>
</g>
<!-- 14 -->
<g id="node15" class="node">
<title>14</title>
<path fill="#f7dac5" stroke="black" d="M1543.5,-53C1543.5,-53 1411.5,-53 1411.5,-53 1405.5,-53 1399.5,-47 1399.5,-41 1399.5,-41 1399.5,-12 1399.5,-12 1399.5,-6 1405.5,0 1411.5,0 1411.5,0 1543.5,0 1543.5,0 1549.5,0 1555.5,-6 1555.5,-12 1555.5,-12 1555.5,-41 1555.5,-41 1555.5,-47 1549.5,-53 1543.5,-53"/>
<text text-anchor="middle" x="1477.5" y="-37.8" font-family="Helvetica,sans-Serif" font-size="14.00">squared_error = 0.0</text>
<text text-anchor="middle" x="1477.5" y="-22.8" font-family="Helvetica,sans-Serif" font-size="14.00">samples = 1</text>
<text text-anchor="middle" x="1477.5" y="-7.8" font-family="Helvetica,sans-Serif" font-size="14.00">value = 21.9</text>
</g>
<!-- 12&#45;&gt;14 -->
<g id="edge14" class="edge">
<title>12&#45;&gt;14</title>
<path fill="none" stroke="black" d="M1355.25,-88.95C1375.55,-78.75 1397.78,-67.57 1417.65,-57.59"/>
<polygon fill="black" stroke="black" points="1419.23,-60.71 1426.6,-53.09 1416.09,-54.45 1419.23,-60.71"/>
</g>
</g>
</svg>
